<svg width="200" height="61" viewBox="0 0 200 61" fill="none" xmlns="http://www.w3.org/2000/svg">
<g clip-path="url(#clip0_6454_5913)">
<path d="M42.4224 1.18182V23H38.9068L28.6262 8.13849H28.4451V23H24.4927V1.18182H28.0296L38.2995 16.054H38.4913V1.18182H42.4224ZM51.2674 23.3303C50.2304 23.3303 49.2965 23.1456 48.4655 22.7763C47.6417 22.3999 46.9882 21.8459 46.5053 21.1143C46.0294 20.3828 45.7915 19.4808 45.7915 18.4084C45.7915 17.4851 45.962 16.7216 46.3029 16.1179C46.6438 15.5142 47.109 15.0312 47.6985 14.669C48.288 14.3068 48.952 14.0334 49.6907 13.8487C50.4364 13.657 51.207 13.5185 52.0025 13.4332C52.9613 13.3338 53.739 13.245 54.3355 13.1669C54.9321 13.0817 55.3654 12.9538 55.6353 12.7834C55.9123 12.6058 56.0507 12.3324 56.0507 11.9631V11.8991C56.0507 11.0966 55.8128 10.4751 55.337 10.0348C54.8611 9.59446 54.1757 9.37429 53.2809 9.37429C52.3363 9.37429 51.587 9.58026 51.033 9.99219C50.4861 10.4041 50.1168 10.8906 49.925 11.4517L46.3242 10.9403C46.6083 9.94602 47.077 9.11506 47.7304 8.44744C48.3838 7.77273 49.1829 7.26847 50.1275 6.93466C51.0721 6.59375 52.1161 6.4233 53.2596 6.4233C54.0479 6.4233 54.8327 6.51563 55.614 6.70028C56.3952 6.88494 57.109 7.19034 57.7553 7.61648C58.4016 8.03551 58.9201 8.60724 59.3107 9.33168C59.7084 10.0561 59.9073 10.9616 59.9073 12.0483V23H56.1999V20.7521H56.0721C55.8377 21.2067 55.5074 21.6328 55.0813 22.0305C54.6623 22.4212 54.1331 22.7372 53.4939 22.9787C52.8618 23.2131 52.1196 23.3303 51.2674 23.3303ZM52.2688 20.4964C53.0429 20.4964 53.7141 20.3437 54.2823 20.0384C54.8505 19.7259 55.2873 19.3139 55.5927 18.8026C55.9052 18.2912 56.0614 17.7337 56.0614 17.13V15.2017C55.9407 15.3011 55.7347 15.3935 55.4435 15.4787C55.1594 15.5639 54.8398 15.6385 54.4847 15.7024C54.1296 15.7663 53.778 15.8232 53.43 15.8729C53.082 15.9226 52.7802 15.9652 52.5245 16.0007C51.9492 16.0788 51.4343 16.2067 50.9797 16.3842C50.5252 16.5618 50.1665 16.8104 49.9037 17.13C49.6409 17.4425 49.5096 17.8473 49.5096 18.3445C49.5096 19.0547 49.7688 19.5909 50.2873 19.9531C50.8057 20.3153 51.4662 20.4964 52.2688 20.4964ZM71.9563 6.63636V9.61932H62.5493V6.63636H71.9563ZM64.8718 2.71591H68.7283V18.0781C68.7283 18.5966 68.8064 18.9943 68.9627 19.2713C69.126 19.5412 69.3391 19.7259 69.6019 19.8253C69.8647 19.9247 70.1559 19.9744 70.4755 19.9744C70.7169 19.9744 70.9371 19.9567 71.136 19.9212C71.3419 19.8857 71.4982 19.8537 71.6047 19.8253L72.2546 22.8402C72.0486 22.9112 71.7539 22.9893 71.3704 23.0746C70.9939 23.1598 70.5323 23.2095 69.9854 23.2237C69.0195 23.2521 68.1495 23.1065 67.3753 22.7869C66.6012 22.4602 65.9868 21.956 65.5323 21.2741C65.0848 20.5923 64.8647 19.7401 64.8718 18.7173V2.71591ZM75.1816 23V6.63636H79.0381V23H75.1816ZM77.1205 4.31392C76.5097 4.31392 75.9842 4.11151 75.5438 3.70668C75.1035 3.29474 74.8833 2.80114 74.8833 2.22585C74.8833 1.64347 75.1035 1.14986 75.5438 0.745027C75.9842 0.333096 76.5097 0.12713 77.1205 0.12713C77.7384 0.12713 78.264 0.333096 78.6972 0.745027C79.1376 1.14986 79.3577 1.64347 79.3577 2.22585C79.3577 2.80114 79.1376 3.29474 78.6972 3.70668C78.264 4.11151 77.7384 4.31392 77.1205 4.31392ZM90.1417 23.3196C88.5436 23.3196 87.1587 22.968 85.9868 22.2649C84.815 21.5618 83.9059 20.5781 83.2596 19.3139C82.6204 18.0497 82.3007 16.5724 82.3007 14.8821C82.3007 13.1918 82.6204 11.7109 83.2596 10.4396C83.9059 9.16832 84.815 8.18111 85.9868 7.47798C87.1587 6.77486 88.5436 6.4233 90.1417 6.4233C91.7397 6.4233 93.1246 6.77486 94.2965 7.47798C95.4684 8.18111 96.3739 9.16832 97.0131 10.4396C97.6594 11.7109 97.9826 13.1918 97.9826 14.8821C97.9826 16.5724 97.6594 18.0497 97.0131 19.3139C96.3739 20.5781 95.4684 21.5618 94.2965 22.2649C93.1246 22.968 91.7397 23.3196 90.1417 23.3196ZM90.163 20.2301C91.0294 20.2301 91.7539 19.9922 92.3363 19.5163C92.9186 19.0334 93.3519 18.3871 93.636 17.5774C93.9272 16.7678 94.0728 15.8658 94.0728 14.8714C94.0728 13.87 93.9272 12.9645 93.636 12.1548C93.3519 11.3381 92.9186 10.6882 92.3363 10.2053C91.7539 9.7223 91.0294 9.48082 90.163 9.48082C89.2752 9.48082 88.5365 9.7223 87.9471 10.2053C87.3647 10.6882 86.9279 11.3381 86.6367 12.1548C86.3526 12.9645 86.2105 13.87 86.2105 14.8714C86.2105 15.8658 86.3526 16.7678 86.6367 17.5774C86.9279 18.3871 87.3647 19.0334 87.9471 19.5163C88.5365 19.9922 89.2752 20.2301 90.163 20.2301ZM105.112 13.4119V23H101.256V6.63636H104.942V9.4169H105.134C105.51 8.50071 106.11 7.77273 106.934 7.23295C107.765 6.69318 108.791 6.4233 110.013 6.4233C111.142 6.4233 112.126 6.66477 112.964 7.14773C113.809 7.63068 114.463 8.33026 114.924 9.24645C115.393 10.1626 115.624 11.2741 115.617 12.581V23H111.76V13.1776C111.76 12.0838 111.476 11.228 110.908 10.6101C110.347 9.99219 109.569 9.68324 108.575 9.68324C107.9 9.68324 107.3 9.83239 106.774 10.1307C106.256 10.4219 105.847 10.8445 105.549 11.3984C105.258 11.9524 105.112 12.6236 105.112 13.4119ZM124.246 23.3303C123.209 23.3303 122.275 23.1456 121.444 22.7763C120.62 22.3999 119.967 21.8459 119.484 21.1143C119.008 20.3828 118.77 19.4808 118.77 18.4084C118.77 17.4851 118.94 16.7216 119.281 16.1179C119.622 15.5142 120.088 15.0312 120.677 14.669C121.266 14.3068 121.931 14.0334 122.669 13.8487C123.415 13.657 124.186 13.5185 124.981 13.4332C125.94 13.3338 126.717 13.245 127.314 13.1669C127.911 13.0817 128.344 12.9538 128.614 12.7834C128.891 12.6058 129.029 12.3324 129.029 11.9631V11.8991C129.029 11.0966 128.791 10.4751 128.315 10.0348C127.84 9.59446 127.154 9.37429 126.259 9.37429C125.315 9.37429 124.565 9.58026 124.012 9.99219C123.465 10.4041 123.095 10.8906 122.904 11.4517L119.303 10.9403C119.587 9.94602 120.056 9.11506 120.709 8.44744C121.362 7.77273 122.161 7.26847 123.106 6.93466C124.051 6.59375 125.095 6.4233 126.238 6.4233C127.026 6.4233 127.811 6.51563 128.592 6.70028C129.374 6.88494 130.088 7.19034 130.734 7.61648C131.38 8.03551 131.899 8.60724 132.289 9.33168C132.687 10.0561 132.886 10.9616 132.886 12.0483V23H129.178V20.7521H129.051C128.816 21.2067 128.486 21.6328 128.06 22.0305C127.641 22.4212 127.112 22.7372 126.472 22.9787C125.84 23.2131 125.098 23.3303 124.246 23.3303ZM125.247 20.4964C126.021 20.4964 126.693 20.3437 127.261 20.0384C127.829 19.7259 128.266 19.3139 128.571 18.8026C128.884 18.2912 129.04 17.7337 129.04 17.13V15.2017C128.919 15.3011 128.713 15.3935 128.422 15.4787C128.138 15.5639 127.818 15.6385 127.463 15.7024C127.108 15.7663 126.757 15.8232 126.409 15.8729C126.061 15.9226 125.759 15.9652 125.503 16.0007C124.928 16.0788 124.413 16.2067 123.958 16.3842C123.504 16.5618 123.145 16.8104 122.882 17.13C122.619 17.4425 122.488 17.8473 122.488 18.3445C122.488 19.0547 122.747 19.5909 123.266 19.9531C123.784 20.3153 124.445 20.4964 125.247 20.4964ZM140.62 1.18182V23H136.764V1.18182H140.62ZM31.8862 54H24.4927V32.1818H32.0353C34.2015 32.1818 36.0623 32.6186 37.6177 33.4922C39.1802 34.3587 40.3805 35.6051 41.2185 37.2315C42.0566 38.858 42.4756 40.804 42.4756 43.0696C42.4756 45.3423 42.0531 47.2955 41.2079 48.929C40.3698 50.5625 39.1589 51.8161 37.5751 52.6896C35.9984 53.5632 34.1021 54 31.8862 54ZM28.4451 50.5803H31.6944C33.2143 50.5803 34.482 50.3033 35.4977 49.7493C36.5133 49.1882 37.2768 48.3537 37.7881 47.2457C38.2995 46.1307 38.5552 44.7386 38.5552 43.0696C38.5552 41.4006 38.2995 40.0156 37.7881 38.9148C37.2768 37.8068 36.5204 36.9794 35.519 36.4325C34.5246 35.8786 33.2889 35.6016 31.8116 35.6016H28.4451V50.5803ZM50.7693 54.3303C49.7324 54.3303 48.7984 54.1456 47.9675 53.7763C47.1436 53.3999 46.4902 52.8459 46.0072 52.1143C45.5314 51.3828 45.2935 50.4808 45.2935 49.4084C45.2935 48.4851 45.4639 47.7216 45.8048 47.1179C46.1457 46.5142 46.6109 46.0312 47.2004 45.669C47.7899 45.3068 48.454 45.0334 49.1926 44.8487C49.9384 44.657 50.709 44.5185 51.5044 44.4332C52.4632 44.3338 53.2409 44.245 53.8375 44.1669C54.4341 44.0817 54.8673 43.9538 55.1372 43.7834C55.4142 43.6058 55.5527 43.3324 55.5527 42.9631V42.8991C55.5527 42.0966 55.3148 41.4751 54.8389 41.0348C54.3631 40.5945 53.6777 40.3743 52.7828 40.3743C51.8382 40.3743 51.0889 40.5803 50.5349 40.9922C49.9881 41.4041 49.6188 41.8906 49.427 42.4517L45.8261 41.9403C46.1102 40.946 46.579 40.1151 47.2324 39.4474C47.8858 38.7727 48.6848 38.2685 49.6294 37.9347C50.574 37.5938 51.618 37.4233 52.7615 37.4233C53.5499 37.4233 54.3347 37.5156 55.1159 37.7003C55.8972 37.8849 56.6109 38.1903 57.2572 38.6165C57.9036 39.0355 58.422 39.6072 58.8126 40.3317C59.2104 41.0561 59.4092 41.9616 59.4092 43.0483V54H55.7018V51.7521H55.574C55.3396 52.2067 55.0094 52.6328 54.5832 53.0305C54.1642 53.4212 53.6351 53.7372 52.9959 53.9787C52.3638 54.2131 51.6216 54.3303 50.7693 54.3303ZM51.7707 51.4964C52.5449 51.4964 53.2161 51.3437 53.7842 51.0384C54.3524 50.7259 54.7892 50.3139 55.0946 49.8026C55.4071 49.2912 55.5634 48.7337 55.5634 48.13V46.2017C55.4426 46.3011 55.2367 46.3935 54.9455 46.4787C54.6614 46.5639 54.3418 46.6385 53.9867 46.7024C53.6315 46.7663 53.28 46.8232 52.932 46.8729C52.584 46.9226 52.2821 46.9652 52.0264 47.0007C51.4511 47.0788 50.9362 47.2067 50.4817 47.3842C50.0271 47.5618 49.6685 47.8104 49.4057 48.13C49.1429 48.4425 49.0115 48.8473 49.0115 49.3445C49.0115 50.0547 49.2707 50.5909 49.7892 50.9531C50.3077 51.3153 50.9682 51.4964 51.7707 51.4964ZM71.4582 37.6364V40.6193H62.0513V37.6364H71.4582ZM64.3737 33.7159H68.2303V49.0781C68.2303 49.5966 68.3084 49.9943 68.4646 50.2713C68.628 50.5412 68.8411 50.7259 69.1038 50.8253C69.3666 50.9247 69.6578 50.9744 69.9774 50.9744C70.2189 50.9744 70.4391 50.9567 70.6379 50.9212C70.8439 50.8857 71.0001 50.8537 71.1067 50.8253L71.7565 53.8402C71.5506 53.9112 71.2558 53.9893 70.8723 54.0746C70.4959 54.1598 70.0342 54.2095 69.4874 54.2237C68.5215 54.2521 67.6514 54.1065 66.8773 53.7869C66.1031 53.4602 65.4888 52.956 65.0342 52.2741C64.5868 51.5923 64.3666 50.7401 64.3737 49.7173V33.7159ZM79.3924 54.3303C78.3554 54.3303 77.4215 54.1456 76.5905 53.7763C75.7667 53.3999 75.1132 52.8459 74.6303 52.1143C74.1544 51.3828 73.9165 50.4808 73.9165 49.4084C73.9165 48.4851 74.087 47.7216 74.4279 47.1179C74.7688 46.5142 75.234 46.0312 75.8235 45.669C76.413 45.3068 77.077 45.0334 77.8157 44.8487C78.5614 44.657 79.332 44.5185 80.1275 44.4332C81.0863 44.3338 81.864 44.245 82.4605 44.1669C83.0571 44.0817 83.4904 43.9538 83.7603 43.7834C84.0373 43.6058 84.1757 43.3324 84.1757 42.9631V42.8991C84.1757 42.0966 83.9378 41.4751 83.462 41.0348C82.9861 40.5945 82.3007 40.3743 81.4059 40.3743C80.4613 40.3743 79.712 40.5803 79.158 40.9922C78.6111 41.4041 78.2418 41.8906 78.05 42.4517L74.4492 41.9403C74.7333 40.946 75.202 40.1151 75.8554 39.4474C76.5088 38.7727 77.3079 38.2685 78.2525 37.9347C79.1971 37.5938 80.2411 37.4233 81.3846 37.4233C82.1729 37.4233 82.9577 37.5156 83.739 37.7003C84.5202 37.8849 85.234 38.1903 85.8803 38.6165C86.5266 39.0355 87.0451 39.6072 87.4357 40.3317C87.8334 41.0561 88.0323 41.9616 88.0323 43.0483V54H84.3249V51.7521H84.1971C83.9627 52.2067 83.6324 52.6328 83.2063 53.0305C82.7873 53.4212 82.2581 53.7372 81.6189 53.9787C80.9868 54.2131 80.2446 54.3303 79.3924 54.3303ZM80.3938 51.4964C81.1679 51.4964 81.8391 51.3437 82.4073 51.0384C82.9755 50.7259 83.4123 50.3139 83.7177 49.8026C84.0302 49.2912 84.1864 48.7337 84.1864 48.13V46.2017C84.0657 46.3011 83.8597 46.3935 83.5685 46.4787C83.2844 46.5639 82.9648 46.6385 82.6097 46.7024C82.2546 46.7663 81.903 46.8232 81.555 46.8729C81.207 46.9226 80.9052 46.9652 80.6495 47.0007C80.0742 47.0788 79.5593 47.2067 79.1047 47.3842C78.6502 47.5618 78.2915 47.8104 78.0287 48.13C77.7659 48.4425 77.6346 48.8473 77.6346 49.3445C77.6346 50.0547 77.8938 50.5909 78.4123 50.9531C78.9307 51.3153 79.5912 51.4964 80.3938 51.4964ZM99.522 54V32.1818H103.474V50.6868H113.084V54H99.522ZM116.344 54V37.6364H120.2V54H116.344ZM118.283 35.3139C117.672 35.3139 117.146 35.1115 116.706 34.7067C116.266 34.2947 116.045 33.8011 116.045 33.2259C116.045 32.6435 116.266 32.1499 116.706 31.745C117.146 31.3331 117.672 31.1271 118.283 31.1271C118.901 31.1271 119.426 31.3331 119.859 31.745C120.3 32.1499 120.52 32.6435 120.52 33.2259C120.52 33.8011 120.3 34.2947 119.859 34.7067C119.426 35.1115 118.901 35.3139 118.283 35.3139ZM124.336 54V32.1818H128.193V40.3423H128.353C128.552 39.9446 128.832 39.522 129.194 39.0746C129.557 38.62 130.047 38.233 130.665 37.9134C131.282 37.5866 132.071 37.4233 133.03 37.4233C134.294 37.4233 135.434 37.7464 136.449 38.3928C137.472 39.032 138.282 39.9801 138.878 41.2372C139.482 42.4872 139.784 44.0213 139.784 45.8395C139.784 47.6364 139.489 49.1634 138.9 50.4205C138.31 51.6776 137.508 52.6364 136.492 53.2969C135.476 53.9574 134.326 54.2876 133.04 54.2876C132.103 54.2876 131.325 54.1314 130.707 53.8189C130.089 53.5064 129.592 53.13 129.216 52.6896C128.846 52.2422 128.559 51.8196 128.353 51.4219H128.129V54H124.336ZM128.118 45.8182C128.118 46.8764 128.268 47.8033 128.566 48.5987C128.871 49.3942 129.308 50.0156 129.876 50.4631C130.451 50.9034 131.148 51.1236 131.964 51.1236C132.817 51.1236 133.53 50.8963 134.106 50.4418C134.681 49.9801 135.114 49.3516 135.405 48.5561C135.704 47.7536 135.853 46.8409 135.853 45.8182C135.853 44.8026 135.707 43.9006 135.416 43.1122C135.125 42.3239 134.692 41.706 134.116 41.2585C133.541 40.8111 132.824 40.5874 131.964 40.5874C131.14 40.5874 130.441 40.804 129.866 41.2372C129.29 41.6705 128.853 42.2777 128.555 43.0589C128.264 43.8402 128.118 44.7599 128.118 45.8182ZM143.062 54V37.6364H146.802V40.3636H146.972C147.271 39.419 147.782 38.6911 148.506 38.1797C149.238 37.6612 150.072 37.402 151.01 37.402C151.223 37.402 151.461 37.4126 151.724 37.4339C151.994 37.4482 152.217 37.473 152.395 37.5085V41.0561C152.232 40.9993 151.972 40.9496 151.617 40.907C151.269 40.8572 150.932 40.8324 150.605 40.8324C149.902 40.8324 149.27 40.9851 148.709 41.2905C148.155 41.5888 147.718 42.0043 147.398 42.5369C147.079 43.0696 146.919 43.6839 146.919 44.38V54H143.062ZM159.373 54.3303C158.336 54.3303 157.402 54.1456 156.571 53.7763C155.747 53.3999 155.094 52.8459 154.611 52.1143C154.135 51.3828 153.897 50.4808 153.897 49.4084C153.897 48.4851 154.067 47.7216 154.408 47.1179C154.749 46.5142 155.214 46.0312 155.804 45.669C156.393 45.3068 157.057 45.0334 157.796 44.8487C158.542 44.657 159.312 44.5185 160.108 44.4332C161.067 44.3338 161.844 44.245 162.441 44.1669C163.038 44.0817 163.471 43.9538 163.741 43.7834C164.018 43.6058 164.156 43.3324 164.156 42.9631V42.8991C164.156 42.0966 163.918 41.4751 163.442 41.0348C162.967 40.5945 162.281 40.3743 161.386 40.3743C160.442 40.3743 159.692 40.5803 159.138 40.9922C158.592 41.4041 158.222 41.8906 158.031 42.4517L154.43 41.9403C154.714 40.946 155.182 40.1151 155.836 39.4474C156.489 38.7727 157.288 38.2685 158.233 37.9347C159.178 37.5938 160.222 37.4233 161.365 37.4233C162.153 37.4233 162.938 37.5156 163.719 37.7003C164.501 37.8849 165.214 38.1903 165.861 38.6165C166.507 39.0355 167.026 39.6072 167.416 40.3317C167.814 41.0561 168.013 41.9616 168.013 43.0483V54H164.305V51.7521H164.178C163.943 52.2067 163.613 52.6328 163.187 53.0305C162.768 53.4212 162.239 53.7372 161.599 53.9787C160.967 54.2131 160.225 54.3303 159.373 54.3303ZM160.374 51.4964C161.148 51.4964 161.82 51.3437 162.388 51.0384C162.956 50.7259 163.393 50.3139 163.698 49.8026C164.011 49.2912 164.167 48.7337 164.167 48.13V46.2017C164.046 46.3011 163.84 46.3935 163.549 46.4787C163.265 46.5639 162.945 46.6385 162.59 46.7024C162.235 46.7663 161.883 46.8232 161.535 46.8729C161.187 46.9226 160.886 46.9652 160.63 47.0007C160.055 47.0788 159.54 47.2067 159.085 47.3842C158.631 47.5618 158.272 47.8104 158.009 48.13C157.746 48.4425 157.615 48.8473 157.615 49.3445C157.615 50.0547 157.874 50.5909 158.393 50.9531C158.911 51.3153 159.572 51.4964 160.374 51.4964ZM171.891 54V37.6364H175.63V40.3636H175.8C176.099 39.419 176.61 38.6911 177.334 38.1797C178.066 37.6612 178.901 37.402 179.838 37.402C180.051 37.402 180.289 37.4126 180.552 37.4339C180.822 37.4482 181.045 37.473 181.223 37.5085V41.0561C181.06 40.9993 180.8 40.9496 180.445 40.907C180.097 40.8572 179.76 40.8324 179.433 40.8324C178.73 40.8324 178.098 40.9851 177.537 41.2905C176.983 41.5888 176.546 42.0043 176.227 42.5369C175.907 43.0696 175.747 43.6839 175.747 44.38V54H171.891ZM186.68 60.1364C186.155 60.1364 185.668 60.0938 185.221 60.0085C184.78 59.9304 184.429 59.8381 184.166 59.7315L185.061 56.7273C185.622 56.8906 186.123 56.9688 186.563 56.9616C187.003 56.9545 187.39 56.8161 187.724 56.5462C188.065 56.2834 188.353 55.843 188.587 55.2251L188.917 54.3409L182.983 37.6364H187.074L190.846 49.9943H191.016L194.798 37.6364H198.9L192.348 55.9815C192.042 56.848 191.638 57.5902 191.133 58.2081C190.629 58.8331 190.011 59.3089 189.28 59.6357C188.555 59.9695 187.689 60.1364 186.68 60.1364Z" fill="#333333"/>
<path d="M13.6281 5.63278C14.9538 5.63278 16.0284 4.58849 16.0284 3.30028C16.0284 2.01207 14.9538 0.967773 13.6281 0.967773C12.3024 0.967773 11.2278 2.01207 11.2278 3.30028C11.2278 4.58849 12.3024 5.63278 13.6281 5.63278Z" fill="#333333"/>
<path d="M7.27057 9.35202C8.59624 9.35202 9.6709 8.30772 9.6709 7.01952C9.6709 5.73131 8.59624 4.68701 7.27057 4.68701C5.9449 4.68701 4.87024 5.73131 4.87024 7.01952C4.87024 8.30772 5.9449 9.35202 7.27057 9.35202Z" fill="#333333"/>
<path d="M3.05383 15.4668C4.3795 15.4668 5.45416 14.4225 5.45416 13.1343C5.45416 11.8461 4.3795 10.8018 3.05383 10.8018C1.72817 10.8018 0.653503 11.8461 0.653503 13.1343C0.653503 14.4225 1.72817 15.4668 3.05383 15.4668Z" fill="#333333"/>
<rect x="16.1578" y="19.6519" width="3.34804" height="15.5043" transform="rotate(90 16.1578 19.6519)" fill="#333333"/>
</g>
<defs>
<clipPath id="clip0_6454_5913">
<rect width="200" height="61" fill="white"/>
</clipPath>
</defs>
</svg>
