<svg width="231" height="35" viewBox="0 0 231 35" fill="none" xmlns="http://www.w3.org/2000/svg">
<g clip-path="url(#clip0_3637_11083)">
<path d="M37.956 27.38C36.2587 27.38 34.7387 26.962 33.396 26.126C32.0534 25.29 30.9894 24.15 30.204 22.706C29.444 21.262 29.064 19.6407 29.064 17.842C29.064 16.018 29.444 14.384 30.204 12.94C30.9894 11.496 32.0407 10.356 33.358 9.52C34.7007 8.684 36.2334 8.266 37.956 8.266C39.2734 8.266 40.4514 8.532 41.49 9.064C42.554 9.596 43.4027 10.3433 44.036 11.306C44.6947 12.2433 45.0494 13.3073 45.1 14.498V21.034C45.0494 22.2247 44.7074 23.3013 44.074 24.264C43.4407 25.2267 42.592 25.9867 41.528 26.544C40.464 27.1013 39.2734 27.38 37.956 27.38ZM38.792 22.782C39.7294 22.782 40.54 22.5793 41.224 22.174C41.9334 21.7433 42.478 21.1607 42.858 20.426C43.2634 19.666 43.466 18.792 43.466 17.804C43.466 16.8413 43.2634 15.9927 42.858 15.258C42.478 14.498 41.9334 13.9153 41.224 13.51C40.54 13.0793 39.742 12.864 38.83 12.864C37.8927 12.864 37.0694 13.0793 36.36 13.51C35.676 13.9407 35.1314 14.5233 34.726 15.258C34.346 15.9927 34.156 16.8413 34.156 17.804C34.156 18.792 34.346 19.666 34.726 20.426C35.1314 21.1607 35.6887 21.7433 36.398 22.174C37.1074 22.5793 37.9054 22.782 38.792 22.782ZM48.14 27H43.2V22.06L43.998 17.576L43.162 13.168V-0.473999H48.14V27Z" fill="#333333"/>
<path d="M60.2199 27.38C58.5479 27.38 57.0405 26.962 55.6979 26.126C54.3552 25.29 53.3039 24.15 52.5439 22.706C51.7839 21.262 51.4039 19.6407 51.4039 17.842C51.4039 16.018 51.7839 14.384 52.5439 12.94C53.3039 11.496 54.3552 10.356 55.6979 9.52C57.0405 8.684 58.5479 8.266 60.2199 8.266C61.5372 8.266 62.7152 8.532 63.7539 9.064C64.7925 9.596 65.6159 10.3433 66.2239 11.306C66.8572 12.2433 67.1992 13.3073 67.2499 14.498V21.11C67.1992 22.326 66.8572 23.4027 66.2239 24.34C65.6159 25.2773 64.7925 26.0247 63.7539 26.582C62.7152 27.114 61.5372 27.38 60.2199 27.38ZM61.1319 22.782C62.5252 22.782 63.6525 22.326 64.5139 21.414C65.3752 20.4767 65.8059 19.2733 65.8059 17.804C65.8059 16.8413 65.6032 15.9927 65.1979 15.258C64.8179 14.498 64.2732 13.9153 63.5639 13.51C62.8799 13.0793 62.0692 12.864 61.1319 12.864C60.2199 12.864 59.4092 13.0793 58.6999 13.51C58.0159 13.9153 57.4712 14.498 57.0659 15.258C56.6859 15.9927 56.4959 16.8413 56.4959 17.804C56.4959 18.792 56.6859 19.666 57.0659 20.426C57.4712 21.1607 58.0159 21.7433 58.6999 22.174C59.4092 22.5793 60.2199 22.782 61.1319 22.782ZM65.5399 27V22.06L66.3379 17.576L65.5399 13.168V8.646H70.4799V27H65.5399Z" fill="#333333"/>
<path d="M77.5817 27V1.008H82.5597V27H77.5817ZM73.2877 13.016V8.646H86.8537V13.016H73.2877Z" fill="#333333"/>
<path d="M96.8839 27.38C95.2119 27.38 93.7046 26.962 92.3619 26.126C91.0193 25.29 89.9679 24.15 89.2079 22.706C88.4479 21.262 88.0679 19.6407 88.0679 17.842C88.0679 16.018 88.4479 14.384 89.2079 12.94C89.9679 11.496 91.0193 10.356 92.3619 9.52C93.7046 8.684 95.2119 8.266 96.8839 8.266C98.2013 8.266 99.3793 8.532 100.418 9.064C101.457 9.596 102.28 10.3433 102.888 11.306C103.521 12.2433 103.863 13.3073 103.914 14.498V21.11C103.863 22.326 103.521 23.4027 102.888 24.34C102.28 25.2773 101.457 26.0247 100.418 26.582C99.3793 27.114 98.2013 27.38 96.8839 27.38ZM97.7959 22.782C99.1893 22.782 100.317 22.326 101.178 21.414C102.039 20.4767 102.47 19.2733 102.47 17.804C102.47 16.8413 102.267 15.9927 101.862 15.258C101.482 14.498 100.937 13.9153 100.228 13.51C99.5439 13.0793 98.7333 12.864 97.7959 12.864C96.8839 12.864 96.0733 13.0793 95.3639 13.51C94.6799 13.9153 94.1353 14.498 93.7299 15.258C93.3499 15.9927 93.1599 16.8413 93.1599 17.804C93.1599 18.792 93.3499 19.666 93.7299 20.426C94.1353 21.1607 94.6799 21.7433 95.3639 22.174C96.0733 22.5793 96.8839 22.782 97.7959 22.782ZM102.204 27V22.06L103.002 17.576L102.204 13.168V8.646H107.144V27H102.204Z" fill="#333333"/>
<path d="M114.968 27.38C114.056 27.38 113.308 27.076 112.726 26.468C112.143 25.86 111.852 25.1127 111.852 24.226C111.852 23.3393 112.143 22.592 112.726 21.984C113.308 21.376 114.056 21.072 114.968 21.072C115.854 21.072 116.589 21.376 117.172 21.984C117.754 22.592 118.046 23.3393 118.046 24.226C118.046 25.1127 117.754 25.86 117.172 26.468C116.589 27.076 115.854 27.38 114.968 27.38Z" fill="#333333"/>
<path d="M129.874 35.132C127.924 35.132 126.201 34.7773 124.706 34.068C123.212 33.384 122.021 32.4087 121.134 31.142L124.288 27.988C124.998 28.824 125.783 29.4573 126.644 29.888C127.531 30.344 128.595 30.572 129.836 30.572C131.382 30.572 132.598 30.1793 133.484 29.394C134.396 28.6087 134.852 27.5193 134.852 26.126V21.528L135.688 17.5L134.89 13.472V8.646H139.83V26.05C139.83 27.874 139.4 29.4573 138.538 30.8C137.702 32.168 136.537 33.232 135.042 33.992C133.548 34.752 131.825 35.132 129.874 35.132ZM129.646 26.506C127.999 26.506 126.517 26.1133 125.2 25.328C123.883 24.5173 122.844 23.4153 122.084 22.022C121.35 20.6287 120.982 19.0707 120.982 17.348C120.982 15.6253 121.35 14.08 122.084 12.712C122.844 11.344 123.883 10.2673 125.2 9.482C126.517 8.67134 127.999 8.266 129.646 8.266C131.014 8.266 132.217 8.532 133.256 9.064C134.32 9.596 135.156 10.3307 135.764 11.268C136.372 12.18 136.701 13.2567 136.752 14.498V20.274C136.701 21.49 136.359 22.5793 135.726 23.542C135.118 24.4793 134.282 25.214 133.218 25.746C132.18 26.2527 130.989 26.506 129.646 26.506ZM130.634 21.984C131.546 21.984 132.331 21.794 132.99 21.414C133.674 21.0087 134.206 20.464 134.586 19.78C134.966 19.0707 135.156 18.2727 135.156 17.386C135.156 16.474 134.966 15.676 134.586 14.992C134.206 14.308 133.674 13.776 132.99 13.396C132.331 12.9907 131.546 12.788 130.634 12.788C129.722 12.788 128.924 12.9907 128.24 13.396C127.556 13.776 127.024 14.3207 126.644 15.03C126.264 15.714 126.074 16.4993 126.074 17.386C126.074 18.2473 126.264 19.0327 126.644 19.742C127.024 20.426 127.556 20.9707 128.24 21.376C128.924 21.7813 129.722 21.984 130.634 21.984Z" fill="#333333"/>
<path d="M152.83 27.38C150.981 27.38 149.309 26.962 147.814 26.126C146.345 25.2647 145.167 24.112 144.28 22.668C143.419 21.1987 142.988 19.5647 142.988 17.766C142.988 15.9673 143.419 14.3587 144.28 12.94C145.141 11.496 146.319 10.356 147.814 9.52C149.309 8.65867 150.968 8.228 152.792 8.228C154.667 8.228 156.339 8.65867 157.808 9.52C159.303 10.356 160.481 11.496 161.342 12.94C162.203 14.3587 162.634 15.9673 162.634 17.766C162.634 19.5647 162.203 21.1987 161.342 22.668C160.481 24.112 159.303 25.2647 157.808 26.126C156.339 26.962 154.679 27.38 152.83 27.38ZM152.792 22.744C153.729 22.744 154.553 22.5413 155.262 22.136C155.997 21.7053 156.554 21.1227 156.934 20.388C157.339 19.628 157.542 18.7667 157.542 17.804C157.542 16.8413 157.339 15.9927 156.934 15.258C156.529 14.5233 155.971 13.9533 155.262 13.548C154.553 13.1173 153.729 12.902 152.792 12.902C151.88 12.902 151.069 13.1173 150.36 13.548C149.651 13.9533 149.093 14.5233 148.688 15.258C148.283 15.9927 148.08 16.8413 148.08 17.804C148.08 18.7667 148.283 19.628 148.688 20.388C149.093 21.1227 149.651 21.7053 150.36 22.136C151.069 22.5413 151.88 22.744 152.792 22.744Z" fill="#333333"/>
<path d="M171.248 27L163.154 8.646H168.626L174.44 23.77H171.742L177.594 8.646H182.876L174.82 27H171.248Z" fill="#333333"/>
<path d="M184.912 27.38C184 27.38 183.252 27.076 182.67 26.468C182.087 25.86 181.796 25.1127 181.796 24.226C181.796 23.3393 182.087 22.592 182.67 21.984C183.252 21.376 184 21.072 184.912 21.072C185.798 21.072 186.533 21.376 187.116 21.984C187.698 22.592 187.99 23.3393 187.99 24.226C187.99 25.1127 187.698 25.86 187.116 26.468C186.533 27.076 185.798 27.38 184.912 27.38Z" fill="#333333"/>
<path d="M200.527 27.38C198.905 27.38 197.461 27.038 196.195 26.354C194.953 25.67 193.978 24.72 193.269 23.504C192.559 22.288 192.205 20.882 192.205 19.286V8.646H197.221V19.172C197.221 19.932 197.347 20.5907 197.601 21.148C197.854 21.68 198.234 22.0853 198.741 22.364C199.247 22.6427 199.843 22.782 200.527 22.782C201.565 22.782 202.376 22.4653 202.959 21.832C203.541 21.1987 203.833 20.312 203.833 19.172V8.646H208.811V19.286C208.811 20.9073 208.456 22.326 207.747 23.542C207.063 24.758 206.087 25.708 204.821 26.392C203.579 27.0507 202.148 27.38 200.527 27.38Z" fill="#333333"/>
<path d="M224.479 27L217.373 17.538L224.441 8.646H230.179L221.895 18.678L222.085 16.246L230.559 27H224.479ZM212.775 27V-0.473999H217.753V27H212.775Z" fill="#333333"/>
<path d="M15.8999 5.71681C17.5245 5.71681 18.8414 4.43706 18.8414 2.85841C18.8414 1.27975 17.5245 0 15.8999 0C14.2753 0 12.9584 1.27975 12.9584 2.85841C12.9584 4.43706 14.2753 5.71681 15.8999 5.71681Z" fill="#333333"/>
<path d="M8.109 10.2747C9.73356 10.2747 11.0505 8.99498 11.0505 7.41633C11.0505 5.83767 9.73356 4.55792 8.109 4.55792C6.48445 4.55792 5.16748 5.83767 5.16748 7.41633C5.16748 8.99498 6.48445 10.2747 8.109 10.2747Z" fill="#333333"/>
<path d="M2.94152 17.7684C4.56608 17.7684 5.88305 16.4886 5.88305 14.91C5.88305 13.3313 4.56608 12.0516 2.94152 12.0516C1.31697 12.0516 0 13.3313 0 14.91C0 16.4886 1.31697 17.7684 2.94152 17.7684Z" fill="#333333"/>
<rect x="19" y="22.8971" width="4.10292" height="19" transform="rotate(90 19 22.8971)" fill="#333333"/>
</g>
<defs>
<clipPath id="clip0_3637_11083">
<rect width="231" height="35" fill="white"/>
</clipPath>
</defs>
</svg>
