<svg width="165" height="154" viewBox="0 0 165 154" fill="none" xmlns="http://www.w3.org/2000/svg">
<path d="M75.9809 100.787C79.9622 118.137 78.3579 136.05 77.5268 153.696L86.4752 153.388C86.2658 147.597 85.6597 136.839 86.9784 127.226C88.2971 117.613 92.6518 105.509 97.1999 98.551C100.82 93.0121 104.675 89.3334 108.721 86.362C116.09 91.712 133.791 92.9338 145.166 84.8605C161.027 73.6044 163.774 51.1004 164.691 40.0326C154.485 37.8186 130.094 34.158 115.795 44.7172C103.63 53.7007 100.799 70.7106 104.072 79.7641C100.89 82.1852 96.4773 86.4907 93.6007 90.0464C90.7241 93.6022 88.3536 97.3483 85.2662 105.684C85.1175 102.838 84.7269 102.613 83.0797 95.9752C80.5438 85.7558 74.062 75.804 66.718 68.1713C71.8955 58.7078 76.0681 40.8309 64.3856 24.5411C52.7031 8.25123 13.6064 0.458523 0.20124 0C-0.945323 15.8644 2.70704 38.1739 13.7475 59.1122C24.7879 80.0505 48.7811 79.338 59.6037 73.557C63.9234 76.7468 72.7522 86.7162 75.9809 100.787Z" fill="#00381E"/>
</svg>
