<svg width="16" height="20" viewBox="0 0 16 20" fill="none" xmlns="http://www.w3.org/2000/svg">
<path d="M8 11C7.69555 10.9964 7.39732 11.0862 7.14544 11.2573C6.89357 11.4284 6.70015 11.6725 6.59121 11.9568C6.48228 12.2411 6.46306 12.552 6.53615 12.8476C6.60923 13.1431 6.77111 13.4092 7 13.61V15C7 15.2652 7.10536 15.5196 7.29289 15.7071C7.48043 15.8946 7.73478 16 8 16C8.26522 16 8.51957 15.8946 8.70711 15.7071C8.89464 15.5196 9 15.2652 9 15V13.61C9.22889 13.4092 9.39077 13.1431 9.46385 12.8476C9.53694 12.552 9.51772 12.2411 9.40879 11.9568C9.29985 11.6725 9.10643 11.4284 8.85456 11.2573C8.60268 11.0862 8.30445 10.9964 8 11ZM13 7V5C13 3.67392 12.4732 2.40215 11.5355 1.46447C10.5979 0.526784 9.32608 0 8 0C6.67392 0 5.40215 0.526784 4.46447 1.46447C3.52678 2.40215 3 3.67392 3 5V7C2.20435 7 1.44129 7.31607 0.87868 7.87868C0.316071 8.44129 0 9.20435 0 10V17C0 17.7956 0.316071 18.5587 0.87868 19.1213C1.44129 19.6839 2.20435 20 3 20H13C13.7956 20 14.5587 19.6839 15.1213 19.1213C15.6839 18.5587 16 17.7956 16 17V10C16 9.20435 15.6839 8.44129 15.1213 7.87868C14.5587 7.31607 13.7956 7 13 7ZM5 5C5 4.20435 5.31607 3.44129 5.87868 2.87868C6.44129 2.31607 7.20435 2 8 2C8.79565 2 9.55871 2.31607 10.1213 2.87868C10.6839 3.44129 11 4.20435 11 5V7H5V5ZM14 17C14 17.2652 13.8946 17.5196 13.7071 17.7071C13.5196 17.8946 13.2652 18 13 18H3C2.73478 18 2.48043 17.8946 2.29289 17.7071C2.10536 17.5196 2 17.2652 2 17V10C2 9.73478 2.10536 9.48043 2.29289 9.29289C2.48043 9.10536 2.73478 9 3 9H13C13.2652 9 13.5196 9.10536 13.7071 9.29289C13.8946 9.48043 14 9.73478 14 10V17Z" fill="#00890B"/>
</svg>
