<svg width="20" height="20" viewBox="0 0 20 20" fill="none" xmlns="http://www.w3.org/2000/svg">
<path d="M7.75 4.75L7.234 6.144C6.558 7.972 6.22 8.886 5.553 9.553C4.886 10.22 3.972 10.558 2.144 11.234L0.75 11.75L2.144 12.266C3.972 12.942 4.886 13.281 5.553 13.947C6.22 14.613 6.558 15.528 7.234 17.356L7.75 18.75L8.266 17.356C8.942 15.528 9.281 14.614 9.947 13.947C10.613 13.28 11.528 12.942 13.356 12.266L14.75 11.75L13.356 11.234C11.528 10.558 10.614 10.22 9.947 9.553C9.28 8.886 8.942 7.972 8.266 6.144L7.75 4.75ZM15.75 0.75L15.529 1.347C15.239 2.131 15.094 2.523 14.809 2.808C14.523 3.094 14.131 3.239 13.347 3.528L12.75 3.75L13.348 3.971C14.131 4.261 14.523 4.406 14.808 4.691C15.094 4.977 15.239 5.369 15.528 6.153L15.75 6.75L15.971 6.153C16.261 5.369 16.406 4.977 16.691 4.692C16.977 4.406 17.369 4.261 18.153 3.972L18.75 3.75L18.152 3.529C17.369 3.239 16.977 3.094 16.692 2.809C16.406 2.523 16.261 2.131 15.972 1.347L15.75 0.75Z" stroke="#00890B" stroke-width="1.5" stroke-linejoin="round"/>
</svg>
