<svg width="30" height="30" viewBox="0 0 30 30" fill="none" xmlns="http://www.w3.org/2000/svg">
<path d="M22.9544 7.87679L22.123 7.04511C22.0916 7.01373 22.0524 7 22.0112 7C21.97 7 21.9308 7.01569 21.8994 7.04511L20.4072 8.53782C19.7585 8.09815 18.9926 7.86374 18.209 7.86502C17.205 7.86502 16.201 8.24752 15.4343 9.01447L13.4362 11.0132C13.407 11.0427 13.3906 11.0826 13.3906 11.1241C13.3906 11.1656 13.407 11.2054 13.4362 11.2349L18.764 16.5643C18.7953 16.5957 18.8345 16.6094 18.8757 16.6094C18.9149 16.6094 18.9561 16.5937 18.9875 16.5643L20.9857 14.5655C22.3367 13.2121 22.4956 11.1192 21.4622 9.59311L22.9544 8.1004C23.0152 8.03764 23.0152 7.9376 22.9544 7.87679ZM20.0405 13.622L18.8757 14.7872L15.2127 11.1231L16.3775 9.95795C16.8658 9.46954 17.5168 9.19885 18.209 9.19885C18.9012 9.19885 19.5503 9.46757 20.0405 9.95795C20.5288 10.4464 20.7994 11.0976 20.7994 11.79C20.7994 12.4824 20.5288 13.1317 20.0405 13.622ZM16.3109 15.6816C16.2814 15.6524 16.2416 15.636 16.2001 15.636C16.1586 15.636 16.1188 15.6524 16.0893 15.6816L14.7833 16.988L13.0126 15.2167L14.3205 13.9084C14.3813 13.8476 14.3813 13.7476 14.3205 13.6868L13.6068 12.9728C13.5773 12.9436 13.5375 12.9272 13.496 12.9272C13.4545 12.9272 13.4147 12.9436 13.3852 12.9728L12.0773 14.2811L11.2341 13.4377C11.2194 13.423 11.202 13.4115 11.1828 13.4037C11.1636 13.396 11.143 13.3922 11.1223 13.3925C11.0831 13.3925 11.0419 13.4082 11.0105 13.4377L9.01432 15.4364C7.66326 16.7899 7.50442 18.8828 8.53782 20.4089L7.04557 21.9016C7.01638 21.931 7 21.9709 7 22.0124C7 22.0539 7.01638 22.0937 7.04557 22.1232L7.877 22.9549C7.90837 22.9863 7.94759 23 7.98877 23C8.02995 23 8.06916 22.9843 8.10054 22.9549L9.59279 21.4622C10.2536 21.9114 11.0223 22.135 11.791 22.135C12.795 22.135 13.7989 21.7525 14.5656 20.9855L16.5638 18.9868C16.6246 18.926 16.6246 18.8259 16.5638 18.7651L15.7206 17.9217L17.0285 16.6133C17.0893 16.5525 17.0893 16.4525 17.0285 16.3917L16.3109 15.6816ZM13.6205 20.044C13.3805 20.2853 13.0951 20.4766 12.7807 20.6069C12.4663 20.7372 12.1293 20.8039 11.789 20.8031C11.0968 20.8031 10.4477 20.5344 9.95752 20.044C9.71629 19.8039 9.52502 19.5184 9.39477 19.204C9.26451 18.8895 9.19785 18.5523 9.19865 18.212C9.19865 17.5196 9.46729 16.8703 9.95752 16.3799L11.1223 15.2148L14.7853 18.8789L13.6205 20.044Z" fill="#00890B"/>
</svg>
