<svg width="21" height="21" viewBox="0 0 21 21" fill="none" xmlns="http://www.w3.org/2000/svg">
<path d="M7.84542 1.83883C7.84542 2.06616 7.93573 2.28418 8.09648 2.44492C8.25722 2.60567 8.47524 2.69598 8.70257 2.69598C8.9299 2.69598 9.14791 2.60567 9.30866 2.44492C9.4694 2.28418 9.55971 2.06616 9.55971 1.83883C9.55971 1.6115 9.4694 1.39349 9.30866 1.23274C9.14791 1.072 8.9299 0.981689 8.70257 0.981689C8.47524 0.981689 8.25722 1.072 8.09648 1.23274C7.93573 1.39349 7.84542 1.6115 7.84542 1.83883ZM18.1311 8.69598C18.1311 8.9233 18.2214 9.14132 18.3822 9.30207C18.5429 9.46281 18.761 9.55312 18.9883 9.55312C19.2156 9.55312 19.4336 9.46281 19.5944 9.30207C19.7551 9.14132 19.8454 8.9233 19.8454 8.69598C19.8454 8.46865 19.7551 8.25063 19.5944 8.08988C19.4336 7.92914 19.2156 7.83883 18.9883 7.83883C18.761 7.83883 18.5429 7.92914 18.3822 8.08988C18.2214 8.25063 18.1311 8.46865 18.1311 8.69598ZM11.274 18.9817C11.274 19.209 11.3643 19.427 11.525 19.5878C11.6858 19.7485 11.9038 19.8388 12.1311 19.8388C12.3585 19.8388 12.5765 19.7485 12.7372 19.5878C12.898 19.427 12.9883 19.209 12.9883 18.9817C12.9883 18.7544 12.898 18.5363 12.7372 18.3756C12.5765 18.2149 12.3585 18.1245 12.1311 18.1245C11.9038 18.1245 11.6858 18.2149 11.525 18.3756C11.3643 18.5363 11.274 18.7544 11.274 18.9817ZM0.988281 12.1245C0.988281 12.3519 1.07859 12.5699 1.23933 12.7306C1.40008 12.8914 1.6181 12.9817 1.84542 12.9817C2.07275 12.9817 2.29077 12.8914 2.45152 12.7306C2.61226 12.5699 2.70257 12.3519 2.70257 12.1245C2.70257 11.8972 2.61226 11.6792 2.45152 11.5185C2.29077 11.3577 2.07275 11.2674 1.84542 11.2674C1.6181 11.2674 1.40008 11.3577 1.23933 11.5185C1.07859 11.6792 0.988281 11.8972 0.988281 12.1245Z" stroke="#4D303D"/>
<path d="M13.4909 0.5V8.96343M7.33657 11.864V20.3274M0.5 7.33657H8.96343M11.864 13.4909H20.3274" stroke="#4D303D" stroke-linecap="round" stroke-linejoin="round"/>
</svg>
