<svg width="20" height="25" viewBox="0 0 20 25" fill="none" xmlns="http://www.w3.org/2000/svg">
<path d="M14.375 13.4375C14.375 13.1889 14.2762 12.9504 14.1004 12.7746C13.9246 12.5988 13.6861 12.5 13.4375 12.5H5.9375C5.68886 12.5 5.4504 12.5988 5.27459 12.7746C5.09877 12.9504 5 13.1889 5 13.4375C5 13.6861 5.09877 13.9246 5.27459 14.1004C5.4504 14.2762 5.68886 14.375 5.9375 14.375H13.4375C13.6861 14.375 13.9246 14.2762 14.1004 14.1004C14.2762 13.9246 14.375 13.6861 14.375 13.4375ZM14.375 18.4375C14.375 18.1889 14.2762 17.9504 14.1004 17.7746C13.9246 17.5988 13.6861 17.5 13.4375 17.5H5.9375C5.68886 17.5 5.4504 17.5988 5.27459 17.7746C5.09877 17.9504 5 18.1889 5 18.4375C5 18.6861 5.09877 18.9246 5.27459 19.1004C5.4504 19.2762 5.68886 19.375 5.9375 19.375H13.4375C13.6861 19.375 13.9246 19.2762 14.1004 19.1004C14.2762 18.9246 14.375 18.6861 14.375 18.4375Z" fill="#00890B"/>
<path fill-rule="evenodd" clip-rule="evenodd" d="M3.4375 0C2.52582 0 1.65148 0.362164 1.00682 1.00682C0.362164 1.65148 0 2.52582 0 3.4375V20.9375C0 21.8492 0.362164 22.7235 1.00682 23.3682C1.65148 24.0128 2.52582 24.375 3.4375 24.375H15.9375C16.8492 24.375 17.7235 24.0128 18.3682 23.3682C19.0128 22.7235 19.375 21.8492 19.375 20.9375V7.1475C19.375 6.67125 19.22 6.20875 18.9325 5.82875L15.185 0.86875C14.9811 0.598895 14.7174 0.379999 14.4146 0.22926C14.1118 0.0785209 13.7782 4.56169e-05 13.44 0H3.4375ZM1.875 3.4375C1.875 2.575 2.575 1.875 3.4375 1.875H12.5V7.37125C12.5 7.88875 12.92 8.30875 13.4375 8.30875H17.5V20.9375C17.5 21.8 16.8 22.5 15.9375 22.5H3.4375C2.575 22.5 1.875 21.8 1.875 20.9375V3.4375Z" fill="#00890B"/>
</svg>
