<svg width="30" height="30" viewBox="0 0 30 30" fill="none" xmlns="http://www.w3.org/2000/svg">
<g clip-path="url(#clip0_4454_4525)">
<path d="M17 11H7.66667C7.48986 11 7.32029 10.9298 7.19526 10.8047C7.07024 10.6797 7 10.5101 7 10.3333V7.66667C7 7.48986 7.07024 7.32029 7.19526 7.19526C7.32029 7.07024 7.48986 7 7.66667 7H17C17.1768 7 17.3464 7.07024 17.4714 7.19526C17.5964 7.32029 17.6667 7.48986 17.6667 7.66667V10.3333C17.6667 10.5101 17.5964 10.6797 17.4714 10.8047C17.3464 10.9298 17.1768 11 17 11ZM8.33333 9.66667H16.3333V8.29333H8.33333V9.66667Z" fill="#00381E"/>
<path d="M17 12.3867H7.66667C7.48986 12.3867 7.32029 12.457 7.19526 12.582C7.07024 12.707 7 12.8766 7 13.0534V15.6667C7 15.8435 7.07024 16.0131 7.19526 16.1381C7.32029 16.2631 7.48986 16.3334 7.66667 16.3334H15.24L17.6667 13.8667V13.0534C17.6667 12.8766 17.5964 12.707 17.4714 12.582C17.3464 12.457 17.1768 12.3867 17 12.3867ZM16.3333 15.0001H8.33333V13.6667H16.3333V15.0001Z" fill="#00381E"/>
<path d="M10.373 24.0067V23.9667L10.5863 23.04H5.66634V5.66671H18.9997V12.5L20.333 11.24V5.00004C20.333 4.82323 20.2628 4.65366 20.1377 4.52864C20.0127 4.40361 19.8432 4.33337 19.6663 4.33337H4.99967C4.82286 4.33337 4.65329 4.40361 4.52827 4.52864C4.40325 4.65366 4.33301 4.82323 4.33301 5.00004V23.6667C4.33301 23.8435 4.40325 24.0131 4.52827 24.1381C4.65329 24.2631 4.82286 24.3334 4.99967 24.3334H10.333C10.3384 24.2237 10.3518 24.1145 10.373 24.0067Z" fill="#00381E"/>
<path d="M17.6665 15.78L17.1465 16.3067C17.2755 16.2801 17.3937 16.2159 17.4863 16.1222C17.5788 16.0284 17.6415 15.9094 17.6665 15.78Z" fill="#00381E"/>
<path d="M7 20.96C7 21.1368 7.07024 21.3063 7.19526 21.4314C7.32029 21.5564 7.48986 21.6266 7.66667 21.6266H10.8933L11.0933 20.76L11.18 20.3933V20.36H8.33333V19H12.56L13.8933 17.6666H7.66667C7.48986 17.6666 7.32029 17.7369 7.19526 17.8619C7.07024 17.9869 7 18.1565 7 18.3333V20.96Z" fill="#00381E"/>
<path d="M25.3271 14.1133L23.0805 11.8667C22.9808 11.7667 22.8623 11.6874 22.7319 11.6333C22.6015 11.5791 22.4617 11.5513 22.3205 11.5513C22.1793 11.5513 22.0395 11.5791 21.9091 11.6333C21.7786 11.6874 21.6602 11.7667 21.5605 11.8667L12.4205 21.06L11.6671 24.2667C11.6389 24.405 11.6383 24.5476 11.6653 24.6862C11.6922 24.8247 11.7463 24.9566 11.8243 25.0743C11.9024 25.192 12.0028 25.2931 12.12 25.3719C12.2372 25.4506 12.3687 25.5055 12.5071 25.5333C12.5759 25.54 12.6451 25.54 12.7138 25.5333C12.7955 25.5461 12.8787 25.5461 12.9605 25.5333L16.1938 24.82L25.3271 15.6667C25.4269 15.5675 25.5061 15.4497 25.5601 15.3198C25.6142 15.1899 25.642 15.0507 25.642 14.91C25.642 14.7694 25.6142 14.6301 25.5601 14.5002C25.5061 14.3704 25.4269 14.2525 25.3271 14.1533V14.1133ZM15.5138 23.6067L13.0738 24.1467L13.6671 21.7267L20.5205 14.8L22.4005 16.68L15.5138 23.6067ZM23.1538 15.9267L21.2738 14.0467L22.3338 13L24.2271 14.8933L23.1538 15.9267Z" fill="#00381E"/>
</g>
<defs>
<clipPath id="clip0_4454_4525">
<rect width="24" height="24" fill="white" transform="translate(3 3)"/>
</clipPath>
</defs>
</svg>
