<svg width="20" height="17" viewBox="0 0 20 17" fill="none" xmlns="http://www.w3.org/2000/svg">
<path d="M9.75044 15.75V5.55C9.75044 3.846 9.85744 1.966 8.11244 1.077C7.47044 0.75 6.63044 0.75 4.95044 0.75H2.35044C1.11444 0.75 0.750436 1.187 0.750436 2.35V11.15C0.750436 11.718 0.714436 12.345 1.29644 12.641C1.51044 12.75 1.78944 12.75 2.34844 12.75H5.18044C7.55744 12.75 8.44044 13.786 9.74944 15.75C11.0594 13.786 11.9424 12.75 14.3194 12.75H17.1524C17.7114 12.75 17.9914 12.75 18.2044 12.641C18.7854 12.345 18.7504 11.717 18.7504 11.15V2.35C18.7504 1.186 18.3854 0.75 17.1504 0.75H14.5504C12.8704 0.75 12.0294 0.75 11.3874 1.077C9.64144 1.966 9.74944 3.846 9.74944 5.55" stroke="#00890B" stroke-width="1.5" stroke-linecap="round" stroke-linejoin="round"/>
</svg>
