<svg width="16" height="16" viewBox="0 0 16 16" fill="none" xmlns="http://www.w3.org/2000/svg">
<path d="M15.2 16C13.3987 16 11.5927 15.5853 9.782 14.756C7.97133 13.9267 6.303 12.749 4.777 11.223C3.26367 9.697 2.08933 8.02333 1.254 6.202C0.418 4.38 0 2.57933 0 0.8V0H4.439L5.287 4.083L2.591 6.593C3.047 7.38367 3.51933 8.106 4.008 8.76C4.49667 9.414 5.00567 10.0037 5.535 10.529C6.06967 11.089 6.67233 11.6123 7.343 12.099C8.01367 12.5857 8.779 13.0657 9.639 13.539L12.25 10.831L16 11.587V16H15.2ZM2.121 5.654L4.213 3.734L3.635 1H1.005C1.025 1.76267 1.128 2.531 1.314 3.305C1.49933 4.07833 1.76833 4.86133 2.121 5.654ZM10.571 13.989C11.1863 14.2977 11.883 14.5387 12.661 14.712C13.439 14.8853 14.2187 14.9777 15 14.989V12.384L12.612 11.909L10.571 13.989Z" fill="#00381E"/>
</svg>
