<svg width="20" height="19" viewBox="0 0 20 19" fill="none" xmlns="http://www.w3.org/2000/svg">
<path d="M11.0005 6V14C11.0005 14.7956 10.6844 15.5587 10.1218 16.1213C9.5592 16.6839 8.79614 17 8.00049 17H5.83049C5.59458 17.6675 5.13029 18.2301 4.51968 18.5884C3.90907 18.9466 3.19146 19.0775 2.4937 18.9578C1.79593 18.8381 1.16294 18.4756 0.706614 17.9344C0.250285 17.3931 0 16.708 0 16C0 15.292 0.250285 14.6069 0.706614 14.0656C1.16294 13.5244 1.79593 13.1619 2.4937 13.0422C3.19146 12.9225 3.90907 13.0534 4.51968 13.4116C5.13029 13.7699 5.59458 14.3325 5.83049 15H8.00049C8.26571 15 8.52006 14.8946 8.70759 14.7071C8.89513 14.5196 9.00049 14.2652 9.00049 14V6C9.00049 5.20435 9.31656 4.44129 9.87917 3.87868C10.4418 3.31607 11.2048 3 12.0005 3H15.0005V0L20.0005 4L15.0005 8V5H12.0005C11.7353 5 11.4809 5.10536 11.2934 5.29289C11.1058 5.48043 11.0005 5.73478 11.0005 6Z" fill="#00890B"/>
</svg>
