<svg width="21" height="20" viewBox="0 0 21 20" fill="none" xmlns="http://www.w3.org/2000/svg">
<path d="M10.5 8.99854C9.263 8.99854 8.2035 8.55754 7.3215 7.67554C6.4395 6.79354 5.999 5.73454 6 4.49854C6.001 3.26254 6.4415 2.20254 7.3215 1.31854C8.2015 0.434542 9.261 -0.00495782 10.5 4.21823e-05C11.739 0.00504218 12.7985 0.445042 13.6785 1.32004C14.5585 2.19504 14.999 3.25504 15 4.50004C15.001 5.74504 14.5605 6.80404 13.6785 7.67704C12.7965 8.55004 11.737 8.98954 10.5 8.99854ZM0 19.845V17.376C0 16.757 0.18 16.178 0.54 15.639C0.901 15.099 1.386 14.68 1.995 14.382C3.411 13.703 4.828 13.194 6.246 12.855C7.663 12.515 9.081 12.345 10.5 12.345C11.919 12.345 13.3375 12.515 14.7555 12.855C16.1735 13.195 17.5895 13.704 19.0035 14.382C19.6135 14.68 20.0985 15.099 20.4585 15.639C20.8195 16.178 21 16.757 21 17.376V19.845H0ZM1.5 18.345H19.5V17.376C19.5 17.044 19.3925 16.7315 19.1775 16.4385C18.9635 16.1465 18.667 15.8995 18.288 15.6975C17.054 15.0995 15.781 14.6415 14.469 14.3235C13.157 14.0055 11.834 13.846 10.5 13.845C9.166 13.844 7.843 14.003 6.531 14.322C5.219 14.641 3.946 15.099 2.712 15.696C2.332 15.898 2.0355 16.145 1.8225 16.437C1.6075 16.73 1.5 17.043 1.5 17.376V18.345ZM10.5 7.50004C11.325 7.50004 12.0315 7.20604 12.6195 6.61804C13.2075 6.03004 13.501 5.32304 13.5 4.49704C13.499 3.67104 13.2055 2.96504 12.6195 2.37904C12.0335 1.79304 11.327 1.49904 10.5 1.49704C9.673 1.49504 8.967 1.78904 8.382 2.37904C7.797 2.96904 7.503 3.67504 7.5 4.49704C7.497 5.31904 7.791 6.02554 8.382 6.61654C8.973 7.20754 9.679 7.50104 10.5 7.49704" fill="#00890B"/>
</svg>
